# xmcd
#
# Track frame offsets:
#	150
#	16832
#	32272
#	46009
#	61516
#	75335
#	94425
#	108249
#	125691
#	138036
#	155163
#	167410
#	180739
#	195986
#	211846
#	223153
#	237582
#	250837
#
# Disc length: 3538 seconds
#
# Revision: 2
# Processed by: cddbd v1.5.1PL2 Copyright (c) Steve Scherf et al.
# Submitted via: EasyCDDAExtractor 8.2.3.1
#
DISCID=e10dd012
DTITLE=Jacó e Jacózinho - Som da Terra
DYEAR=1991
DGENRE=Sertanejo
TTITLE0=Ladrão de Terra
TTITLE1=É Fogo
TTITLE2=Empreitada Perigosa
TTITLE3=Filho de Pobre
TTITLE4=Ninho de Cobra
TTITLE5=Velho Valente
TTITLE6=Terra Bruta
TTITLE7=Os Filhos da Bahia
TTITLE8=Preto e Branco
TTITLE9=Canção do Soldado
TTITLE10=Viva o Lari Larai
TTITLE11=Degrau da Fama
TTITLE12=Fundanga
TTITLE13=Caboclinha
TTITLE14=Amigo da Onça
TTITLE15=Homem Sem Rumo
TTITLE16=Cavalo Enxuto
TTITLE17=Tropa Saudosa
EXTD=
EXTT0=
EXTT1=
EXTT2=
EXTT3=
EXTT4=
EXTT5=
EXTT6=
EXTT7=
EXTT8=
EXTT9=
EXTT10=
EXTT11=
EXTT12=
EXTT13=
EXTT14=
EXTT15=
EXTT16=
EXTT17=
PLAYORDER=
